<?xml version="1.0" encoding="utf-8"?>
<!-- Generator: Adobe Illustrator 16.0.0, SVG Export Plug-In . SVG Version: 6.00 Build 0)  -->
<!DOCTYPE svg PUBLIC "-//W3C//DTD SVG 1.1//EN" "http://www.w3.org/Graphics/SVG/1.1/DTD/svg11.dtd">
<svg version="1.1" id="Layer_1" xmlns="http://www.w3.org/2000/svg" xmlns:xlink="http://www.w3.org/1999/xlink" x="0px" y="0px"
	 width="300px" height="80px" viewBox="58.576 12.904 300 80" enable-background="new 58.576 12.904 300 80" xml:space="preserve">
<g>
	<path d="M330.755,34.361c-2.61-0.21-5.223-0.404-7.838-0.533c-1.072-0.051-2.166-0.01-3.228,0.151
		c-3.148,0.473-5.117,2.854-4.452,5.544c0.281,1.13,1.102,2.12,1.62,3.199c0.24,0.504,0.582,1.128,0.471,1.602
		c-0.361,1.554-0.856,3.078-1.408,4.577c-0.267,0.726-0.906,1.39-1.713,1.211c-0.608-0.134-1.284-0.649-1.628-1.187
		c-0.805-1.266-1.451-2.634-2.116-3.983c-1.037-2.105-1.022-2.113,0.775-3.67c0.172-0.15,0.341-0.306,0.513-0.459
		c0.987-0.873,1.264-1.941,0.909-3.197c-0.696-2.449-2.608-3.413-4.858-3.632c-3.709-0.36-7.441-0.642-11.164-0.676
		c-2.733-0.024-5.485,0.3-8.205,0.657c-2.854,0.375-4.935,1.84-5.646,4.819c-0.015,0.072-0.096,0.131-0.051,0.074
		c-1.215-1.073-2.267-2.376-3.624-3.127c-2.247-1.243-4.638-2.271-7.06-3.128c-2.26-0.8-4.684-1.065-7.073-0.634
		c-2.763,0.498-5.502,1.129-8.227,1.807c-2.931,0.727-5.801,1.628-8.171,3.644c-0.201,0.171-0.491,0.24-0.828,0.399
		c0-0.501-0.003-0.859,0.002-1.217c0.021-2.515-0.787-3.371-3.3-3.456c-2.094-0.069-4.189-0.116-6.283-0.189
		c-1.445-0.05-1.928-0.518-2.031-1.956c-0.131-1.828-0.243-3.659-0.363-5.489c-0.077-1.194-0.409-1.611-1.598-1.673
		c-1.47-0.078-2.95-0.119-4.415-0.015c-0.711,0.052-1.469,0.357-2.082,0.744c-5.235,3.292-10.421,6.661-15.671,9.93
		c-1.5,0.934-3.089,1.673-3.13,3.858c-1.103-0.587-2.033-1.136-3.01-1.587c-1.124-0.518-2.25-1.107-3.441-1.389
		c-5.623-1.333-11.264-1.313-16.937-0.17c-4.178,0.841-7.902,2.491-11.009,5.446c-0.118,0.112-0.247,0.218-0.383,0.306
		c-2.004,1.278-3.399,3.013-4.131,5.299c-0.267,0.833-0.719,1.61-1.102,2.405c-0.084,0.174-0.234,0.318-0.353,0.472
		c-0.327-2.105-0.515-4.169-0.984-6.166c-1.175-4.998-4.668-9.86-10.989-10.521c-3.998-0.418-7.498,0.165-9.98,3.724
		c-0.897,1.286-1.896,2.507-2.908,3.706c-0.236,0.28-0.739,0.51-1.078,0.464c-0.224-0.03-0.496-0.58-0.537-0.923
		c-0.16-1.329-0.343-2.67-0.325-4.004c0.061-4.584,0.213-9.165,0.309-13.747c0.05-2.418-0.768-3.495-3.107-4.223
		c-0.146-0.046-0.277-0.14-0.416-0.21c-0.589,0-1.179,0-1.768,0c-4.146,1.373-8.284,2.771-12.443,4.105
		c-2.101,0.671-4.171,1.355-5.773,3.164c-0.578-0.651-1.132-1.238-1.645-1.859c-2.399-2.908-5.558-4.471-9.183-5.223
		c-0.15-0.03-0.289-0.122-0.432-0.185c-2.162,0-4.324,0-6.486,0c-2.113,0.197-4.221,0.48-6.339,0.578
		c-5.484,0.254-10.971,0.431-16.458,0.633c-1.371,0.05-2.754-0.017-4.11,0.148c-2.534,0.311-4.877,1.026-5.91,3.749
		c0,0.72,0,1.442,0,2.163c0.742,1.532,1.984,2.444,3.574,2.99c0.768,0.265,1.472,0.71,2.218,1.043
		c0.914,0.409,1.296,1.094,1.312,2.093c0.092,5.664,0.292,11.328,0.305,16.992c0.009,4.516-0.203,9.032-0.303,13.548
		c-0.026,1.196-0.594,2.04-1.575,2.659c-0.581,0.366-1.232,0.664-1.709,1.139c-0.718,0.71-1.31,1.544-1.956,2.327
		c0.075,0.079,0.149,0.157,0.225,0.236c9.889,0,19.776,0,29.779,0c-0.777-1.427-1.952-2.247-3.224-2.904
		c-1.639-0.844-2.449-2.191-2.72-3.945c-0.175-1.132-0.361-2.262-0.535-3.394c-0.412-2.681-0.008-3.125,2.662-2.819
		c4.62,0.531,9.213-0.008,13.641-1.086c6.485-1.582,10.773-5.694,12.122-12.474c0.11-0.554,0.282-1.095,0.426-1.643
		c0.089,0.008,0.176,0.016,0.264,0.023c0.045,0.273,0.128,0.546,0.131,0.819c0.071,6.12,0.095,12.244,0.214,18.364
		c0.055,2.863-0.662,5.26-3.144,6.981c-0.603,0.417-0.915,1.252-1.492,2.087c9.042,0,17.732,0,26.7,0
		c-0.481-0.503-0.752-0.932-1.14-1.164c-1.545-0.925-2.101-2.314-2.146-4.039c-0.118-4.556-0.099-9.099,0.64-13.615
		c0.162-0.99,0.61-1.702,1.445-2.205c2.142-1.289,4.802-0.289,5.659,2.149c1.491,4.243,1.296,8.63,1.069,13.017
		c-0.09,1.762-0.67,3.316-1.868,4.637c-0.292,0.324-0.482,0.739-0.79,1.225c7.579,0,14.991,0,22.421,0
		c-0.5-1.54-0.984-3.023-1.466-4.508c1.029,1.221,1.91,2.474,2.733,3.765c0.4,0.626,0.89,0.82,1.625,0.816
		c5.927-0.029,11.854-0.017,17.782-0.017c6.124,0,12.248,0.011,18.372-0.02c0.434-0.002,1.023-0.161,1.271-0.468
		c1.743-2.154,3.227-4.493,3.68-7.276c0.377-2.317,0.53-4.676,0.771-7.016c0.29-2.822-0.089-5.546-1.188-8.171
		c-0.18-0.432-0.273-0.9-0.439-1.469c0.801,0.069,1.447,0.143,2.092,0.174c0.797,0.04,1.095,0.477,1.059,1.222
		c-0.039,0.817-0.14,1.639-0.099,2.453c0.18,3.561,0.376,7.123,0.61,10.683c0.189,2.9,0.249,5.819,1.213,8.623
		c0.319,0.924,0.733,1.3,1.801,1.298c22.039-0.042,44.081-0.031,66.119-0.031c2.148,0,2.151,0,2.017-2.185
		c-0.055-0.856-0.28-1.613-1.254-1.864c-1.517-0.39-2.162-1.495-2.279-2.94c-0.169-2.082-0.334-4.167-0.377-6.253
		c-0.07-3.438-0.045-6.877-0.056-10.316c0-0.313,0.032-0.625,0.057-1.087c1.037,0.459,1.932,0.896,2.856,1.258
		c1.671,0.655,2.739,1.835,3.495,3.46c2.944,6.33,5.97,12.622,8.931,18.944c0.36,0.771,0.813,1.009,1.646,1.004
		c5.535-0.035,11.069-0.044,16.604,0.007c0.928,0.01,1.305-0.306,1.604-1.141c2.162-6.031,4.406-12.033,6.55-18.07
		c0.78-2.191,2.167-3.767,4.137-4.906c0.908-0.524,1.817-1.049,2.677-1.644c1.476-1.021,2.228-3.18,1.761-4.878
		C334.017,35.362,332.895,34.534,330.755,34.361z M102.658,41.983c-0.958,2.552-2.927,4.113-5.609,4.625
		c-1.688,0.323-3.224-1.007-3.331-2.728c-0.074-1.206-0.143-2.412-0.214-3.616c0.02-0.002,0.04-0.003,0.06-0.004
		c0-2.905-0.015-5.808,0.008-8.712c0.007-0.846,0.105-1.694,0.196-2.538c0.079-0.731,0.536-1.06,1.253-1.109
		c3.367-0.236,6.587,1.387,7.576,5.071C103.409,35.996,103.776,39.01,102.658,41.983z M196.05,63.486
		c-0.275,0.644-0.639,1.273-1.076,1.819c-0.589,0.734-1.591,0.864-2.351,0.333c-1.493-1.041-2.794-2.288-3.297-4.103
		c-0.941-3.398-1.822-6.813-2.7-10.227c-0.128-0.498-0.106-1.034-0.153-1.552c-0.037-0.012-0.073-0.023-0.109-0.036
		c0.25-1.234,0.368-2.521,0.812-3.68c0.205-0.535,0.999-1.036,1.614-1.188c1.888-0.458,3.629,0.52,4.229,2.43
		c1.113,3.549,2.188,7.116,3.096,10.721C196.563,59.786,196.822,61.682,196.05,63.486z M249.212,54.097
		c-2.326,1.996-4.327,4.199-5.681,6.986c-0.694,1.43-3.032,2.564-4.56,2.215c-0.518-0.117-1.102-0.739-1.307-1.267
		c-0.861-2.214-1.458-4.493-1.489-6.914c-0.041-3.035-0.221-6.069-0.339-9.103c-0.023-0.003-0.048-0.006-0.07-0.009
		c0.082-0.873,0.161-1.747,0.248-2.618c0.073-0.704,0.56-1.054,1.178-1.099c2.394-0.172,4.762-0.643,7.197-0.109
		c1.003,0.219,1.199,0.78,1.319,1.502c0.217,1.287,0.718,2.39,1.587,3.378c1.867,2.12,4.249,2.296,6.258,0.296
		c1.316-1.31,2.478-2.771,3.774-4.1c1.291-1.322,2.761-2.307,4.712-2.505c1.773-0.181,2.985,0.437,3.542,2.101
		c0.644,1.92,0.721,3.899,0.647,5.896c-0.029,0.779-0.416,1.098-1.195,1.05c-1.455-0.089-2.916-0.23-4.368-0.186
		C256.328,49.747,252.523,51.257,249.212,54.097z M266.41,64.853c-0.114,1.515-2.312,2.19-3.566,1.238
		c-1.384-1.05-2.302-2.434-2.238-4.243c0.047-1.289,0.121-2.607,0.432-3.853c0.392-1.56,1.792-2.552,2.947-2.361
		c1.666,0.274,2.764,1.611,2.776,3.382c0.003,0.523,0,1.049,0,1.57c0.052,0.006,0.103,0.012,0.154,0.017
		C266.743,62.021,266.521,63.432,266.41,64.853z"/>
	<path d="M292.042,87.592c-0.009,0.052-0.021,0.1-0.03,0.152c0.775,0.274,1.551,0.551,2.325,0.828c1.9,0,3.801,0,5.7,0
		c1.018-0.28,2.037-0.561,3.053-0.843c-0.014-0.044-0.028-0.094-0.042-0.138C299.315,87.592,295.775,87.592,292.042,87.592z"/>
	<path d="M287.188,69.147c-22.498,0-44.962,0-67.49,0c0.311,0.798,0.839,1.002,1.566,1.002c21.575-0.01,43.148-0.012,64.722,0.007
		C286.691,70.156,287.106,69.967,287.188,69.147z"/>
	<path d="M340.85,18.323c-4.64-0.003-8.381,3.723-8.383,8.354c-0.003,4.621,3.741,8.38,8.36,8.391
		c4.62,0.01,8.364-3.732,8.372-8.369C349.206,22.053,345.492,18.33,340.85,18.323z M340.798,33.974
		c-4.029-0.018-7.317-3.332-7.276-7.331c0.04-4.027,3.333-7.273,7.363-7.257c4.005,0.015,7.312,3.347,7.283,7.343
		C348.14,30.747,344.837,33.992,340.798,33.974z"/>
	<path d="M173.495,69.141c-0.042,0.127-0.083,0.249-0.124,0.374c0.529,0.21,1.057,0.597,1.587,0.601
		c10.537,0.034,21.075,0.036,31.611-0.004c0.628-0.002,1.254-0.425,1.882-0.651c-0.034-0.106-0.066-0.211-0.099-0.319
		C196.733,69.141,185.114,69.141,173.495,69.141z"/>
	<path d="M99.671,69.068c-9.659,0.008-19.319,0.004-28.978,0.006c-0.229,0-0.487-0.048-0.677,0.042
		c-0.158,0.075-0.326,0.318-0.326,0.489c0,0.17,0.167,0.432,0.323,0.49c0.229,0.09,0.514,0.044,0.775,0.044
		c9.66,0.002,19.319,0.002,28.979-0.002c0.319,0,0.638-0.025,0.99-0.04C100.928,69.109,100.351,69.068,99.671,69.068z"/>
	<path d="M284.381,79.719c0.215,0.029,0.376,0.067,0.535,0.067c8.869,0.004,17.738,0,26.605,0.01
		c0.682,0.002,1.004-0.308,1.076-0.979c-9.449,0-18.857,0-28.346,0C284.302,79.156,284.34,79.432,284.381,79.719z"/>
	<path d="M144.346,69.07c-8.404,0.008-16.81,0.004-25.214,0.008c-0.255,0-0.512,0.025-0.809,0.042
		c-0.218,1.055,0.402,1.025,1.032,1.025c8.373-0.006,16.744-0.002,25.116-0.008c0.286,0,0.571-0.036,0.845-0.055
		C145.573,69.097,144.999,69.07,144.346,69.07z"/>
	<path d="M71.714,74.069c-0.027,0.128-0.055,0.256-0.083,0.385c0.706,0.206,1.411,0.591,2.118,0.597
		c7.726,0.042,15.453,0.042,23.177-0.002c0.745-0.004,1.488-0.394,2.232-0.604c-0.035-0.124-0.07-0.249-0.104-0.375
		C89.941,74.069,80.828,74.069,71.714,74.069z"/>
	<path d="M71.206,72.525c3.566-0.007,7.134-0.004,10.702-0.004c5.859,0,11.717,0,17.576,0c0.564,0,1.175,0.085,1.143-0.848
		c-10.205,0-20.335,0-30.479,0C70.136,72.503,70.641,72.527,71.206,72.525z"/>
	<path d="M297.076,76.52c-3.959,0-7.915-0.001-11.874,0c-0.259,0-0.536-0.027-0.776,0.043c-0.129,0.038-0.282,0.264-0.282,0.402
		c0,0.14,0.159,0.364,0.287,0.394c0.281,0.066,0.584,0.037,0.88,0.037c7.163,0.002,14.323,0.002,21.486,0.002
		c2.028,0,4.056-0.008,6.084,0.003c0.565,0.004,1.038-0.086,1.19-0.881c-0.422,0-0.798,0-1.178,0
		C307.619,76.52,302.348,76.52,297.076,76.52z"/>
	<path d="M170.411,69.11c-0.22-0.097-0.513-0.036-0.774-0.036c-3.5,0-7,0-10.5,0c-3.5,0-7,0-10.501,0
		c-0.229,0-0.484-0.061-0.68,0.021c-0.226,0.096-0.397,0.319-0.592,0.485c0.179,0.184,0.329,0.429,0.545,0.535
		c0.187,0.092,0.449,0.025,0.678,0.025c7.034,0.002,14.066,0.002,21.1,0c0.229,0,0.483,0.059,0.679-0.023
		c0.192-0.081,0.453-0.306,0.451-0.464C170.813,69.463,170.6,69.195,170.411,69.11z"/>
	<path d="M175.679,71.657c-0.032,0.118-0.064,0.234-0.096,0.353c0.479,0.171,0.958,0.487,1.437,0.487
		c8.581,0.031,17.162,0.037,25.742-0.002c0.611-0.004,1.221-0.369,1.833-0.569c-0.027-0.088-0.056-0.18-0.083-0.269
		C194.9,71.657,185.289,71.657,175.679,71.657z"/>
	<path d="M286.114,81.504c3.857-0.002,7.719,0,11.578,0c4.122,0,8.243-0.002,12.365,0.002c0.56,0,1.119,0.013,1.338-0.756
		c-8.925,0-17.758,0-26.657,0C284.99,81.544,285.559,81.506,286.114,81.504z"/>
	<path d="M119.133,72.034c0.501,0.163,0.999,0.459,1.501,0.463c3.534,0.042,7.068,0.023,10.604,0.023
		c4.352,0,8.705,0.002,13.058-0.003c0.83,0,0.83-0.013,0.841-0.864c-8.627,0-17.256,0-25.883,0
		C119.214,71.78,119.174,71.907,119.133,72.034z"/>
	<path d="M122.396,74.052c-0.018,0.104-0.037,0.211-0.056,0.316c1.027,0.234,2.05,0.659,3.08,0.674
		c5.403,0.07,10.807,0.059,16.209,0.002c0.785-0.007,1.566-0.415,2.349-0.639c-0.036-0.119-0.069-0.236-0.104-0.352
		C136.715,74.052,129.556,74.052,122.396,74.052z"/>
	<path d="M285.819,82.479c-0.038,0.099-0.073,0.201-0.112,0.302c0.423,0.183,0.842,0.523,1.264,0.525
		c7.334,0.033,14.67,0.033,22.004,0c0.415-0.004,0.828-0.35,1.245-0.534c-0.04-0.1-0.079-0.196-0.117-0.293
		C302.007,82.479,293.913,82.479,285.819,82.479z"/>
	<path d="M148.043,71.66c0.128,0.768,0.584,0.87,1.165,0.866c2.419-0.015,4.839-0.006,7.258-0.006c4.381,0,8.763,0,13.144,0
		c0.549-0.001,1.165,0.074,1.054-0.86C163.128,71.66,155.621,71.66,148.043,71.66z"/>
	<path d="M222.245,71.668c-0.029,0.093-0.057,0.187-0.085,0.28c0.582,0.19,1.164,0.542,1.744,0.547
		c6.577,0.039,13.151,0.037,19.727,0c0.446-0.004,0.892-0.368,1.336-0.565c-0.039-0.088-0.078-0.176-0.119-0.262
		C237.314,71.668,229.779,71.668,222.245,71.668z"/>
	<path d="M180.19,74.021c-0.017,0.099-0.035,0.199-0.051,0.299c1.315,0.251,2.627,0.688,3.948,0.72
		c4.053,0.097,8.11,0.089,12.162,0.001c1.215-0.025,2.421-0.454,3.629-0.697c-0.021-0.108-0.042-0.214-0.063-0.322
		C193.273,74.021,186.731,74.021,180.19,74.021z"/>
	<path d="M301.035,69.17c-0.041,0.104-0.086,0.211-0.128,0.315c0.394,0.22,0.787,0.624,1.182,0.626
		c4.939,0.044,9.876,0.046,14.814,0.002c0.428-0.004,0.854-0.403,1.281-0.617c-0.058-0.108-0.116-0.218-0.174-0.326
		C312.354,69.17,306.693,69.17,301.035,69.17z"/>
	<path d="M287.385,84.285c-0.023,0.098-0.05,0.198-0.076,0.297c0.449,0.172,0.896,0.49,1.347,0.492
		c6.183,0.033,12.37,0.033,18.553-0.003c0.467-0.002,0.933-0.347,1.399-0.529c-0.032-0.086-0.062-0.174-0.095-0.259
		C301.472,84.285,294.429,84.285,287.385,84.285z"/>
	<path d="M247.276,71.658c0.145,0.832,0.704,0.868,1.331,0.866c5.562-0.007,11.125,0.01,16.687-0.025
		c0.554-0.004,1.11-0.297,1.665-0.456c-0.028-0.126-0.057-0.256-0.085-0.385C260.35,71.658,253.824,71.658,247.276,71.658z"/>
	<path d="M226.787,74.021c1.319,0.709,2.707,1.067,4.189,1.059c3.11-0.015,6.224,0.036,9.332-0.033
		c0.744-0.017,1.48-0.396,2.222-0.607c-0.034-0.142-0.068-0.28-0.102-0.418C237.215,74.021,232,74.021,226.787,74.021z"/>
	<path d="M249.444,74.466c0.817,0.203,1.63,0.567,2.452,0.582c3.403,0.065,6.808,0.006,10.21,0.042
		c0.848,0.011,1.388-0.368,2.014-1.055c-4.971,0-9.778,0-14.585,0C249.505,74.178,249.475,74.323,249.444,74.466z"/>
	<path d="M285.503,73.951c-0.72-0.008-1.137,0.161-1.081,1.047c4.483,0,8.93,0,13.366,0c0.029-0.86-0.395-1.049-1.111-1.045
		C292.954,73.979,289.229,73.981,285.503,73.951z"/>
	<path d="M315.028,73.971c-3.926-0.005-7.852,0.008-11.775-0.016c-0.771-0.004-0.88,0.461-0.984,1.023
		c0.104,0.034,0.165,0.075,0.228,0.075c4.022,0.007,8.047,0.034,12.068-0.015c0.368-0.004,0.73-0.485,1.096-0.746
		c-0.053-0.082-0.106-0.166-0.162-0.25C315.341,74.017,315.185,73.971,315.028,73.971z"/>
	<path d="M150.96,74.305c5.785,0.732,11.573,0.808,17.362,0.04c0.008-0.104,0.017-0.209,0.025-0.315c-5.796,0-11.592,0-17.388,0
		C150.96,74.121,150.96,74.213,150.96,74.305z"/>
	<path d="M285.071,71.67c-5.077,0-10.153,0-15.23,0c-0.049,0.113-0.1,0.229-0.147,0.344c0.423,0.169,0.844,0.481,1.269,0.483
		c4.152,0.039,8.305,0.046,12.457-0.002c0.578-0.005,1.154-0.348,1.731-0.534C285.123,71.864,285.099,71.767,285.071,71.67z"/>
	<path d="M302.412,71.706c-0.039,0.115-0.082,0.23-0.121,0.348c0.342,0.156,0.681,0.443,1.021,0.445
		c4.181,0.033,8.36,0.035,12.538-0.004c0.367-0.004,0.729-0.342,1.095-0.525c-0.045-0.088-0.092-0.176-0.136-0.264
		C312.008,71.706,307.211,71.706,302.412,71.706z"/>
	<path d="M289.402,86.056c-0.02,0.085-0.042,0.167-0.061,0.251c0.43,0.121,0.859,0.345,1.292,0.347c4.77,0.025,9.542,0.027,14.313,0
		c0.465-0.004,0.928-0.244,1.391-0.374c-0.021-0.075-0.041-0.148-0.064-0.224C300.652,86.056,295.028,86.056,289.402,86.056z"/>
	<path d="M285.225,72.148c0.045,0.103,0.091,0.205,0.137,0.308c3.868,0,7.738,0,11.605,0c0.051-0.108,0.102-0.214,0.15-0.322
		c-0.341-0.176-0.684-0.498-1.028-0.504c-3.296-0.038-6.589-0.036-9.887,0.002C285.874,71.635,285.549,71.966,285.225,72.148z"/>
	<path d="M91.961,76.59c-4.102,0-8.204,0-12.305,0C83.758,77.325,87.861,77.574,91.961,76.59z"/>
	<path d="M280.148,74.012c-2.472,0-4.941,0-7.409,0C275.23,75.385,277.695,75.084,280.148,74.012z"/>
	<path d="M288.58,70.093c2.074,0,4.146,0,6.219,0C292.712,69.022,290.64,68.933,288.58,70.093z"/>
	<path d="M340.29,22.845c-1.527-0.325-2.308,0.309-2.086,2.196c0.139,1.203,0.006,2.435,0.036,3.654
		c0.014,0.564-0.21,1.356,0.688,1.433c0.941,0.083,0.85-0.696,0.825-1.282c-0.036-0.829,0.186-1.283,1.133-1.247
		c1.812,0.069,2.964-0.651,2.814-2.668C343.551,22.887,342.042,22.862,340.29,22.845z M340.723,26.308
		c-0.874,0.035-0.956-0.481-0.954-1.156c0.002-0.749,0.298-1.134,1.081-1.06c0.734,0.069,1.355,0.259,1.327,1.181
		C342.092,26.179,341.46,26.279,340.723,26.308z"/>
</g>
</svg>
