<?xml version="1.0" encoding="utf-8"?>
<!-- Generator: Adobe Illustrator 16.0.0, SVG Export Plug-In . SVG Version: 6.00 Build 0)  -->
<!DOCTYPE svg PUBLIC "-//W3C//DTD SVG 1.1//EN" "http://www.w3.org/Graphics/SVG/1.1/DTD/svg11.dtd">
<svg version="1.1" id="Layer_1" xmlns="http://www.w3.org/2000/svg" xmlns:xlink="http://www.w3.org/1999/xlink" x="0px" y="0px"
	 width="417.152px" height="105.806px" viewBox="0 0 417.152 105.806" enable-background="new 0 0 417.152 105.806"
	 xml:space="preserve">
<g>
	<g id="_x35_yz7Rg_1_">
		<g>
			<path fill-rule="evenodd" clip-rule="evenodd" d="M104.639,0c0.206,0.105,0.4,0.244,0.618,0.312
				c3.47,1.08,4.683,2.677,4.609,6.262c-0.141,6.797-0.368,13.592-0.458,20.391c-0.026,1.979,0.245,3.969,0.482,5.941
				c0.061,0.508,0.465,1.324,0.796,1.368c0.504,0.067,1.249-0.274,1.599-0.689c1.502-1.778,2.983-3.589,4.314-5.497
				c3.681-5.279,8.872-6.143,14.802-5.522c9.375,0.979,14.557,8.191,16.299,15.604c0.696,2.963,0.975,6.023,1.46,9.146
				c0.175-0.23,0.397-0.443,0.522-0.701c0.568-1.181,1.239-2.332,1.635-3.568c1.086-3.391,3.154-5.964,6.127-7.86
				c0.203-0.13,0.394-0.286,0.569-0.453c4.608-4.382,10.131-6.83,16.329-8.078c8.414-1.694,16.781-1.724,25.121,0.253
				c1.766,0.418,3.437,1.293,5.104,2.061c1.448,0.668,2.829,1.482,4.464,2.352c0.062-3.239,2.418-4.336,4.645-5.721
				c7.785-4.849,15.477-9.846,23.242-14.729c0.91-0.571,2.033-1.025,3.088-1.102c2.172-0.155,4.369-0.093,6.547,0.022
				c1.764,0.092,2.256,0.712,2.371,2.482c0.178,2.714,0.344,5.43,0.539,8.141c0.152,2.133,0.869,2.826,3.012,2.902
				c3.107,0.109,6.215,0.178,9.32,0.281c3.727,0.126,4.926,1.395,4.893,5.126c-0.006,0.53-0.002,1.061-0.002,1.804
				c0.502-0.235,0.93-0.338,1.229-0.592c3.514-2.99,7.775-4.326,12.119-5.405c4.041-1.005,8.107-1.94,12.203-2.68
				c3.543-0.638,7.139-0.245,10.492,0.942c3.592,1.272,7.137,2.796,10.469,4.639c2.014,1.115,3.576,3.047,5.375,4.639
				c-0.064,0.084,0.053-0.002,0.078-0.111c1.053-4.418,4.137-6.594,8.373-7.148c4.033-0.529,8.115-1.01,12.17-0.975
				c5.521,0.05,11.057,0.469,16.557,1.002c3.338,0.324,6.174,1.755,7.207,5.387c0.527,1.863,0.115,3.449-1.348,4.742
				c-0.254,0.226-0.504,0.458-0.76,0.68c-2.666,2.31-2.689,2.321-1.152,5.444c0.986,2.001,1.945,4.03,3.139,5.907
				c0.508,0.799,1.51,1.562,2.416,1.762c1.195,0.265,2.145-0.72,2.541-1.797c0.816-2.223,1.551-4.485,2.088-6.787
				c0.164-0.703-0.342-1.629-0.701-2.375c-0.768-1.604-1.986-3.07-2.402-4.747c-0.986-3.989,1.934-7.521,6.604-8.222
				c1.574-0.238,3.197-0.301,4.787-0.223c3.879,0.191,7.754,0.477,11.625,0.789c3.174,0.256,4.838,1.486,5.5,3.906
				c0.691,2.518-0.424,5.721-2.613,7.235c-1.275,0.882-2.623,1.661-3.969,2.438c-2.924,1.691-4.98,4.029-6.137,7.278
				c-3.18,8.954-6.508,17.855-9.715,26.801c-0.445,1.238-1.004,1.705-2.381,1.693c-8.209-0.077-16.418-0.063-24.627-0.011
				c-1.234,0.008-1.906-0.345-2.441-1.488c-4.391-9.378-8.879-18.71-13.246-28.099c-1.119-2.409-2.705-4.161-5.184-5.132
				c-1.371-0.537-2.699-1.184-4.236-1.866c-0.037,0.687-0.084,1.15-0.084,1.614c0.016,5.1-0.021,10.201,0.082,15.3
				c0.064,3.094,0.309,6.188,0.559,9.276c0.174,2.144,1.131,3.782,3.381,4.362c1.443,0.371,1.779,1.492,1.859,2.765
				c0.201,3.239,0.195,3.24-2.99,3.24c-32.689,0-65.381-0.016-98.07,0.044c-1.584,0.004-2.199-0.552-2.672-1.925
				c-1.428-4.157-1.516-8.486-1.799-12.789c-0.348-5.278-0.639-10.561-0.904-15.845c-0.061-1.206,0.088-2.425,0.146-3.637
				c0.053-1.106-0.389-1.755-1.57-1.813c-0.959-0.047-1.914-0.156-3.105-0.258c0.248,0.844,0.387,1.537,0.654,2.178
				c1.629,3.893,2.189,7.935,1.76,12.119c-0.357,3.473-0.584,6.968-1.143,10.407c-0.672,4.128-2.871,7.596-5.457,10.793
				c-0.367,0.454-1.244,0.692-1.887,0.694c-9.084,0.046-18.167,0.031-27.25,0.031c-8.792,0-17.584-0.019-26.375,0.023
				c-1.09,0.005-1.817-0.282-2.41-1.212c-1.221-1.914-2.528-3.772-4.054-5.583c0.716,2.201,1.433,4.401,2.175,6.685
				c-11.02,0-22.014,0-33.255,0c0.456-0.719,0.738-1.336,1.172-1.815c1.776-1.959,2.636-4.265,2.771-6.877
				c0.335-6.508,0.625-13.014-1.586-19.307c-1.271-3.616-5.218-5.1-8.394-3.189c-1.239,0.746-1.903,1.802-2.144,3.271
				c-1.095,6.699-1.124,13.438-0.949,20.194c0.066,2.557,0.891,4.619,3.182,5.99c0.575,0.346,0.977,0.982,1.691,1.728
				c-13.302,0-26.191,0-39.603,0c0.857-1.238,1.32-2.478,2.213-3.097c3.682-2.553,4.745-6.107,4.664-10.354
				c-0.176-9.077-0.212-18.159-0.318-27.238c-0.004-0.405-0.126-0.81-0.193-1.214c-0.13-0.012-0.261-0.023-0.392-0.035
				c-0.213,0.812-0.469,1.615-0.632,2.437C77.819,45.172,71.46,51.273,61.84,53.618c-6.567,1.601-13.38,2.398-20.232,1.611
				c-3.959-0.454-4.559,0.205-3.948,4.183c0.258,1.679,0.534,3.354,0.794,5.031c0.403,2.604,1.603,4.602,4.035,5.855
				c1.886,0.972,3.629,2.19,4.782,4.307c-14.837,0-29.503,0-44.17,0c-0.111-0.117-0.222-0.234-0.333-0.351
				c0.958-1.161,1.836-2.4,2.901-3.453c0.708-0.702,1.674-1.146,2.536-1.689c1.454-0.918,2.296-2.171,2.336-3.943
				c0.149-6.699,0.464-13.397,0.449-20.097c-0.019-8.4-0.315-16.801-0.453-25.202c-0.024-1.481-0.59-2.496-1.946-3.104
				c-1.106-0.493-2.15-1.154-3.29-1.546c-2.358-0.81-4.2-2.161-5.301-4.436c0-1.068,0-2.138,0-3.206
				c1.533-4.039,5.008-5.1,8.766-5.561c2.011-0.247,4.063-0.145,6.096-0.22c8.138-0.3,16.277-0.562,24.411-0.94
				C42.415,0.713,45.542,0.293,48.676,0c3.207,0,6.413,0,9.62,0c0.213,0.094,0.418,0.23,0.642,0.277
				c5.376,1.115,10.061,3.434,13.62,7.747c0.761,0.922,1.583,1.792,2.439,2.758c2.377-2.684,5.448-3.698,8.564-4.694
				C89.73,4.11,95.867,2.035,102.017,0C102.891,0,103.766,0,104.639,0z M248.906,42.672c0.033,0.004,0.07,0.008,0.104,0.012
				c0.176,4.501,0.441,9,0.502,13.503c0.049,3.589,0.932,6.97,2.209,10.255c0.305,0.781,1.172,1.705,1.938,1.879
				c2.266,0.519,5.734-1.167,6.764-3.288c2.006-4.133,4.975-7.399,8.426-10.359c4.912-4.215,10.555-6.453,16.988-6.65
				c2.154-0.065,4.32,0.144,6.479,0.276c1.156,0.07,1.73-0.402,1.773-1.559c0.109-2.962-0.006-5.897-0.961-8.746
				c-0.826-2.467-2.621-3.383-5.252-3.115c-2.896,0.293-5.074,1.754-6.99,3.715c-1.924,1.97-3.646,4.138-5.598,6.08
				c-2.979,2.966-6.512,2.705-9.281-0.439c-1.291-1.466-2.033-3.102-2.352-5.01c-0.18-1.072-0.471-1.904-1.959-2.229
				c-3.611-0.792-7.125-0.093-10.674,0.161c-0.918,0.066-1.639,0.585-1.746,1.629C249.144,40.08,249.027,41.377,248.906,42.672z
				 M37.987,34.151c-0.03,0.002-0.059,0.003-0.088,0.005c0.106,1.787,0.208,3.576,0.318,5.365c0.157,2.551,2.436,4.525,4.939,4.045
				c3.978-0.762,6.898-3.077,8.32-6.861c1.657-4.409,1.113-8.881-0.091-13.361c-1.467-5.466-6.242-7.873-11.236-7.523
				c-1.065,0.073-1.743,0.562-1.859,1.645c-0.135,1.251-0.28,2.508-0.291,3.764C37.965,25.536,37.987,29.844,37.987,34.151z
				 M175.629,48.184c0.054,0.018,0.108,0.035,0.163,0.052c0.07,0.769,0.037,1.563,0.227,2.301
				c1.302,5.064,2.609,10.128,4.004,15.168c0.746,2.693,2.676,4.541,4.89,6.086c1.128,0.787,2.614,0.595,3.488-0.494
				c0.648-0.809,1.188-1.744,1.596-2.699c1.145-2.676,0.762-5.486,0.096-8.127c-1.348-5.347-2.941-10.638-4.592-15.901
				c-0.89-2.834-3.472-4.283-6.272-3.604c-0.913,0.223-2.09,0.967-2.394,1.76C176.176,44.446,176.001,46.353,175.629,48.184z
				 M295.105,64.323c-0.076-0.008-0.152-0.017-0.227-0.024c0-0.777,0.004-1.556,0-2.332c-0.018-2.626-1.648-4.609-4.119-5.015
				c-1.713-0.282-3.791,1.189-4.371,3.504c-0.461,1.845-0.572,3.801-0.639,5.714c-0.096,2.681,1.266,4.735,3.318,6.292
				c1.863,1.412,5.121,0.408,5.291-1.836C294.521,68.519,294.851,66.424,295.105,64.323z"/>
			<path fill-rule="evenodd" clip-rule="evenodd" fill="#FFFFFF" d="M102.017,0c-6.15,2.035-12.287,4.11-18.455,6.088
				c-3.116,0.996-6.187,2.011-8.564,4.694c-0.856-0.966-1.679-1.836-2.439-2.758c-3.56-4.313-8.244-6.632-13.62-7.747
				C58.714,0.23,58.509,0.094,58.295,0C72.869,0,87.442,0,102.017,0z"/>
			<path fill-rule="evenodd" clip-rule="evenodd" fill="#FFFFFF" d="M48.676,0c-3.133,0.293-6.261,0.713-9.402,0.857
				C31.139,1.236,23,1.498,14.862,1.798c-2.033,0.075-4.085-0.027-6.096,0.22C5.008,2.479,1.533,3.539,0,7.578C0,5.053,0,2.525,0,0
				C16.225,0,32.451,0,48.676,0z"/>
			<path fill-rule="evenodd" clip-rule="evenodd" d="M335.779,105.806c-1.148-0.41-2.299-0.82-3.449-1.229
				c0.016-0.075,0.031-0.148,0.045-0.222c5.537,0,10.789,0,16.326,0c0.02,0.066,0.039,0.136,0.061,0.203
				c-1.508,0.417-3.02,0.832-4.527,1.248C341.416,105.806,338.597,105.806,335.779,105.806z"/>
			<path fill-rule="evenodd" clip-rule="evenodd" d="M325.175,76.995c-0.121,1.216-0.736,1.495-1.783,1.494
				c-32-0.023-63.998-0.022-95.998-0.008c-1.078,0-1.863-0.302-2.324-1.486C258.486,76.995,291.804,76.995,325.175,76.995z"/>
			<path fill-rule="evenodd" clip-rule="evenodd" d="M417.152,14.035c-0.01,6.877-5.562,12.427-12.418,12.412
				c-6.85-0.016-12.404-5.59-12.4-12.445c0.004-6.867,5.553-12.395,12.434-12.389C411.654,1.621,417.162,7.145,417.152,14.035z
				 M404.691,24.826c5.992,0.027,10.891-4.787,10.932-10.746c0.041-5.926-4.861-10.869-10.803-10.891
				c-5.977-0.023-10.863,4.791-10.922,10.764C393.837,19.885,398.716,24.799,404.691,24.826z"/>
			<path fill-rule="evenodd" clip-rule="evenodd" d="M156.542,76.988c17.234,0,34.468,0,51.702,0
				c0.049,0.157,0.098,0.313,0.147,0.471c-0.931,0.337-1.86,0.963-2.792,0.967c-15.628,0.06-31.257,0.056-46.886,0.005
				c-0.786-0.005-1.569-0.58-2.354-0.89C156.42,77.356,156.481,77.173,156.542,76.988z"/>
			<path fill-rule="evenodd" clip-rule="evenodd" d="M48.656,78.404c-0.522,0.021-0.995,0.062-1.468,0.062
				c-14.327,0.004-28.654,0.004-42.981,0.001c-0.388,0-0.811,0.067-1.151-0.065c-0.231-0.09-0.479-0.476-0.479-0.729
				c0-0.252,0.248-0.613,0.483-0.726c0.282-0.133,0.665-0.062,1.004-0.062c14.327-0.001,28.654,0.002,42.981-0.008
				C48.053,76.878,48.908,76.938,48.656,78.404z"/>
			<path fill-rule="evenodd" clip-rule="evenodd" d="M321.011,92.678c-0.061-0.43-0.117-0.835-0.191-1.342
				c14.074,0,28.027,0,42.043,0c-0.105,0.998-0.584,1.455-1.596,1.454c-13.152-0.013-26.307-0.009-39.461-0.014
				C321.57,92.776,321.332,92.72,321.011,92.678z"/>
			<path fill-rule="evenodd" clip-rule="evenodd" d="M74.71,76.953c0.44-0.024,0.82-0.064,1.199-0.064
				c12.466-0.003,24.933,0,37.399-0.008c0.969-0.001,1.82,0.041,1.437,1.501c-0.405,0.028-0.829,0.084-1.252,0.084
				c-12.418,0.005-24.835,0.002-37.253,0.009C75.306,78.475,74.386,78.519,74.71,76.953z"/>
			<path fill-rule="evenodd" clip-rule="evenodd" d="M46.286,84.85c-1.104,0.313-2.206,0.892-3.311,0.898
				c-11.458,0.066-22.918,0.064-34.378,0.001c-1.049-0.006-2.094-0.576-3.141-0.884c0.041-0.19,0.081-0.379,0.122-0.569
				c13.518,0,27.035,0,40.553,0C46.182,84.48,46.234,84.665,46.286,84.85z"/>
			<path fill-rule="evenodd" clip-rule="evenodd" d="M48.463,80.742c0.048,1.382-0.858,1.259-1.695,1.259
				C38.078,81.999,29.388,82,20.698,82c-5.292,0-10.583-0.006-15.874,0.005c-0.837,0.002-1.587-0.033-1.567-1.263
				C18.302,80.742,33.328,80.742,48.463,80.742z"/>
			<path fill-rule="evenodd" clip-rule="evenodd" d="M365.048,87.931c-0.225,1.18-0.926,1.312-1.766,1.307
				c-3.008-0.017-6.016-0.006-9.023-0.006c-10.625,0-21.246,0-31.871-0.002c-0.438,0-0.885,0.042-1.303-0.054
				c-0.188-0.044-0.426-0.379-0.426-0.583c0-0.207,0.227-0.54,0.418-0.598c0.359-0.106,0.768-0.064,1.154-0.064
				c5.871-0.002,11.738,0,17.611,0c7.818,0,15.639,0,23.459,0C363.865,87.931,364.423,87.931,365.048,87.931z"/>
			<path fill-rule="evenodd" clip-rule="evenodd" d="M135.245,76.886c5.191,0,10.383,0,15.575,0.001
				c0.388,0,0.822-0.091,1.149,0.054c0.28,0.123,0.596,0.523,0.6,0.805c0.004,0.234-0.383,0.568-0.668,0.688
				c-0.291,0.121-0.668,0.036-1.008,0.036c-10.432,0.002-20.863,0.002-31.295,0c-0.34,0-0.73,0.098-1.006-0.038
				c-0.322-0.157-0.544-0.521-0.809-0.794c0.289-0.248,0.543-0.578,0.878-0.719c0.29-0.122,0.669-0.032,1.009-0.032
				C124.862,76.886,130.054,76.886,135.245,76.886z"/>
			<path fill-rule="evenodd" clip-rule="evenodd" d="M159.781,80.717c14.255,0,28.511,0,42.766,0
				c0.04,0.134,0.082,0.269,0.122,0.401c-0.907,0.294-1.811,0.838-2.718,0.843c-12.726,0.056-25.454,0.05-38.18,0.004
				c-0.711-0.002-1.42-0.472-2.131-0.724C159.687,81.066,159.734,80.893,159.781,80.717z"/>
			<path fill-rule="evenodd" clip-rule="evenodd" d="M361.082,94.205c-0.324,1.14-1.154,1.12-1.986,1.12
				c-6.113-0.004-12.227-0.003-18.34-0.003c-5.725,0-11.451-0.001-17.174,0.001c-0.824,0.002-1.666,0.06-2.041-1.118
				C334.742,94.205,347.843,94.205,361.082,94.205z"/>
			<path fill-rule="evenodd" clip-rule="evenodd" d="M76.091,80.712c12.796,0,25.594,0,38.391,0
				c-0.017,1.261-0.017,1.282-1.248,1.283C106.778,82.003,100.322,82,93.866,82c-5.243,0-10.486,0.027-15.727-0.033
				c-0.745-0.009-1.484-0.448-2.227-0.689C75.972,81.089,76.031,80.9,76.091,80.712z"/>
			<path fill-rule="evenodd" clip-rule="evenodd" d="M112.763,84.795c-1.161,0.33-2.319,0.937-3.484,0.948
				c-8.013,0.084-16.028,0.098-24.042-0.005c-1.526-0.02-3.044-0.651-4.567-1c0.027-0.156,0.055-0.312,0.082-0.467
				c10.619,0,21.238,0,31.857,0C112.661,84.445,112.711,84.619,112.763,84.795z"/>
			<path fill-rule="evenodd" clip-rule="evenodd" d="M323.144,96.768c12.006,0,24.012,0,36.018,0
				c0.057,0.146,0.115,0.29,0.174,0.436c-0.617,0.275-1.23,0.788-1.848,0.792c-10.877,0.049-21.756,0.049-32.635,0
				c-0.627-0.003-1.248-0.507-1.875-0.778C323.035,97.066,323.089,96.916,323.144,96.768z"/>
			<path fill-rule="evenodd" clip-rule="evenodd" d="M118.792,80.724c11.24,0,22.375,0,33.552,0c0.163,1.384-0.75,1.274-1.564,1.275
				C144.281,82,137.783,82,131.285,82c-3.589,0-7.178-0.013-10.766,0.008C119.658,82.014,118.981,81.861,118.792,80.724z"/>
			<path fill-rule="evenodd" clip-rule="evenodd" d="M228.849,80.733c11.176,0,22.352,0,33.527,0c0.059,0.13,0.117,0.26,0.176,0.39
				c-0.66,0.292-1.32,0.834-1.982,0.838c-9.752,0.055-19.504,0.058-29.258,0c-0.863-0.007-1.725-0.528-2.588-0.81
				C228.765,81.012,228.806,80.873,228.849,80.733z"/>
			<path fill-rule="evenodd" clip-rule="evenodd" d="M166.473,84.224c9.703,0,19.406,0,29.108,0c0.032,0.16,0.062,0.318,0.093,0.479
				c-1.792,0.361-3.581,0.996-5.383,1.035c-6.01,0.131-12.027,0.139-18.038-0.002c-1.959-0.047-3.905-0.696-5.856-1.07
				C166.421,84.52,166.447,84.371,166.473,84.224z"/>
			<path fill-rule="evenodd" clip-rule="evenodd" d="M371.15,77.512c-0.635,0.319-1.266,0.91-1.9,0.916
				c-7.324,0.064-14.648,0.062-21.973-0.002c-0.586-0.004-1.17-0.604-1.754-0.929c0.064-0.155,0.129-0.312,0.191-0.468
				c8.393,0,16.787,0,25.178,0C370.978,77.19,371.064,77.352,371.15,77.512z"/>
			<path fill-rule="evenodd" clip-rule="evenodd" d="M356.945,99.828c-0.693,0.275-1.383,0.785-2.076,0.788
				c-9.172,0.054-18.348,0.053-27.518,0.004c-0.668-0.004-1.33-0.477-1.996-0.731c0.039-0.147,0.076-0.295,0.113-0.442
				c10.447,0,20.893,0,31.336,0C356.853,99.572,356.898,99.701,356.945,99.828z"/>
			<path fill-rule="evenodd" clip-rule="evenodd" d="M295.169,81.292c-0.822,0.235-1.645,0.671-2.469,0.676
				c-8.248,0.051-16.5,0.026-24.75,0.039c-0.928,0.001-1.758-0.053-1.973-1.285c9.713,0,19.391,0,29.068,0
				C295.087,80.911,295.128,81.103,295.169,81.292z"/>
			<path fill-rule="evenodd" clip-rule="evenodd" d="M258.937,84.843c-1.098,0.315-2.189,0.878-3.295,0.902
				c-4.611,0.104-9.227,0.029-13.84,0.05c-2.201,0.011-4.258-0.519-6.215-1.572c7.732,0,15.467,0,23.199,0
				C258.837,84.429,258.886,84.635,258.937,84.843z"/>
			<path fill-rule="evenodd" clip-rule="evenodd" d="M269.328,84.245c7.129,0,14.26,0,21.633,0c-0.93,1.018-1.73,1.58-2.986,1.566
				c-5.047-0.056-10.098,0.034-15.145-0.063c-1.219-0.024-2.426-0.562-3.637-0.863C269.238,84.672,269.283,84.458,269.328,84.245z"
				/>
			<path fill-rule="evenodd" clip-rule="evenodd" d="M321.072,85.673c-0.084-1.314,0.535-1.562,1.605-1.553
				c5.525,0.044,11.049,0.041,16.574,0.004c1.061-0.007,1.691,0.274,1.646,1.549C334.316,85.673,327.722,85.673,321.072,85.673z"/>
			<path fill-rule="evenodd" clip-rule="evenodd" d="M367.406,84.629c-0.541,0.386-1.08,1.099-1.625,1.105
				c-5.965,0.071-11.934,0.032-17.9,0.02c-0.092,0-0.182-0.059-0.338-0.112c0.154-0.831,0.318-1.521,1.461-1.516
				c5.82,0.036,11.643,0.018,17.465,0.024c0.232,0.001,0.465,0.069,0.697,0.107C367.248,84.381,367.328,84.506,367.406,84.629z"/>
			<path fill-rule="evenodd" clip-rule="evenodd" d="M148.87,84.706c-8.587,1.137-17.171,1.025-25.752-0.06c0-0.136,0-0.272,0-0.408
				c8.596,0,17.193,0,25.79,0C148.895,84.395,148.883,84.55,148.87,84.706z"/>
			<path fill-rule="evenodd" clip-rule="evenodd" d="M299.445,80.737c7.531,0,15.061,0,22.59,0c0.041,0.144,0.078,0.288,0.119,0.432
				c-0.857,0.276-1.711,0.783-2.57,0.793c-6.156,0.069-12.316,0.059-18.475,0.003c-0.631-0.004-1.256-0.468-1.883-0.719
				C299.298,81.076,299.373,80.906,299.445,80.737z"/>
			<path fill-rule="evenodd" clip-rule="evenodd" d="M369.31,81.18c-0.541,0.273-1.078,0.777-1.623,0.782
				c-6.197,0.057-12.396,0.052-18.596,0.006c-0.506-0.003-1.008-0.432-1.514-0.663c0.059-0.171,0.121-0.343,0.18-0.515
				c7.117,0,14.232,0,21.352,0C369.175,80.921,369.242,81.051,369.31,81.18z"/>
			<path fill-rule="evenodd" clip-rule="evenodd" d="M353.58,102.406c-0.688,0.192-1.373,0.548-2.064,0.553
				c-7.076,0.042-14.154,0.039-21.23,0.002c-0.641-0.003-1.279-0.334-1.916-0.513c0.029-0.125,0.059-0.248,0.09-0.372
				c8.344,0,16.686,0,25.027,0C353.517,102.186,353.548,102.296,353.58,102.406z"/>
			<path fill-rule="evenodd" clip-rule="evenodd" d="M339.679,81.903c-5.736,0-11.475,0-17.213,0
				c-0.068-0.153-0.135-0.306-0.203-0.458c0.482-0.268,0.963-0.76,1.449-0.766c4.889-0.057,9.777-0.058,14.664-0.001
				c0.512,0.006,1.02,0.485,1.527,0.745C339.83,81.584,339.755,81.742,339.679,81.903z"/>
			<path fill-rule="evenodd" clip-rule="evenodd" d="M35.609,88.035c-6.081,1.46-12.166,1.092-18.25,0
				C23.442,88.035,29.526,88.035,35.609,88.035z"/>
			<path fill-rule="evenodd" clip-rule="evenodd" d="M303.744,84.21c3.662,0,7.324,0,10.99,0
				C311.095,85.801,307.439,86.247,303.744,84.21z"/>
			<path fill-rule="evenodd" clip-rule="evenodd" d="M336.464,78.399c-3.074,0-6.148,0-9.223,0
				C330.294,76.677,333.369,76.809,336.464,78.399z"/>
			<path fill-rule="evenodd" clip-rule="evenodd" fill="#FFFFFF" d="M404.691,24.826c-5.975-0.027-10.854-4.941-10.793-10.873
				c0.059-5.973,4.945-10.787,10.922-10.764c5.941,0.021,10.844,4.965,10.803,10.891C415.582,20.039,410.683,24.854,404.691,24.826z
				"/>
			<path fill-rule="evenodd" clip-rule="evenodd" fill="#FFFFFF" d="M403.58,13.455c0-1.26,0-2.342,0-3.9
				c1.365,0.389,2.602,0.602,3.672,1.142c0.275,0.138,0.293,1.472-0.023,1.966C406.343,14.035,404.888,13.211,403.58,13.455z"/>
		</g>
	</g>
	<path fill-rule="evenodd" clip-rule="evenodd" d="M403.939,8.319c2.598,0.025,4.834,0.063,5.059,3.094
		c0.223,2.992-1.488,4.06-4.176,3.958c-1.402-0.054-1.732,0.619-1.678,1.849c0.037,0.869,0.172,2.024-1.223,1.902
		c-1.334-0.115-1.002-1.289-1.023-2.126c-0.045-1.807,0.154-3.635-0.053-5.419C400.517,8.777,401.673,7.837,403.939,8.319z
		 M406.736,11.919c0.041-1.368-0.879-1.648-1.967-1.752c-1.164-0.109-1.602,0.462-1.605,1.573c-0.002,1,0.119,1.767,1.416,1.715
		C405.673,13.411,406.611,13.265,406.736,11.919z"/>
</g>
</svg>
