<?xml version="1.0" encoding="utf-8"?>
<!-- Generator: Adobe Illustrator 16.0.0, SVG Export Plug-In . SVG Version: 6.00 Build 0)  -->
<!DOCTYPE svg PUBLIC "-//W3C//DTD SVG 1.1//EN" "http://www.w3.org/Graphics/SVG/1.1/DTD/svg11.dtd">
<svg version="1.1" id="Layer_1" xmlns="http://www.w3.org/2000/svg" xmlns:xlink="http://www.w3.org/1999/xlink" x="0px" y="0px"
	 width="417.152px" height="105.807px" viewBox="0 0 417.152 105.807" enable-background="new 0 0 417.152 105.807"
	 xml:space="preserve">
<g>
	<path fill="#E8CF64" d="M389.795,25.399c-3.871-0.312-7.746-0.599-11.625-0.789c-1.59-0.077-3.213-0.016-4.787,0.224
		c-4.67,0.701-7.59,4.232-6.604,8.223c0.416,1.677,1.634,3.144,2.402,4.746c0.357,0.746,0.863,1.673,0.699,2.375
		c-0.537,2.303-1.271,4.564-2.088,6.787c-0.396,1.077-1.346,2.062-2.541,1.797c-0.904-0.199-1.906-0.963-2.416-1.762
		c-1.193-1.877-2.152-3.906-3.139-5.907c-1.537-3.123-1.516-3.134,1.15-5.443c0.256-0.223,0.506-0.454,0.76-0.681
		c1.465-1.293,1.875-2.879,1.35-4.741c-1.033-3.633-3.869-5.062-7.207-5.388c-5.5-0.532-11.036-0.951-16.559-1.002
		c-4.055-0.035-8.137,0.446-12.17,0.976c-4.234,0.555-7.318,2.729-8.373,7.147c-0.023,0.108-0.142,0.194-0.076,0.11
		c-1.801-1.592-3.361-3.523-5.375-4.639c-3.332-1.844-6.879-3.367-10.471-4.64c-3.353-1.188-6.949-1.58-10.492-0.941
		c-4.096,0.739-8.16,1.675-12.201,2.681c-4.346,1.078-8.604,2.414-12.119,5.404c-0.299,0.254-0.729,0.356-1.229,0.592
		c0-0.742-0.004-1.273,0.002-1.804c0.033-3.73-1.166-5-4.894-5.126c-3.104-0.104-6.213-0.173-9.319-0.281
		c-2.144-0.075-2.859-0.77-3.013-2.901c-0.194-2.711-0.36-5.428-0.539-8.142c-0.114-1.771-0.606-2.391-2.37-2.481
		c-2.179-0.115-4.375-0.177-6.548-0.021c-1.055,0.077-2.178,0.53-3.088,1.103c-7.767,4.883-15.457,9.88-23.242,14.729
		c-2.227,1.385-4.583,2.481-4.645,5.722c-1.635-0.87-3.016-1.685-4.464-2.354c-1.667-0.768-3.338-1.643-5.104-2.061
		c-8.34-1.978-16.707-1.947-25.121-0.253c-6.198,1.247-11.721,3.695-16.329,8.077c-0.175,0.167-0.366,0.323-0.569,0.453
		c-2.973,1.896-5.041,4.47-6.127,7.859c-0.396,1.236-1.067,2.388-1.635,3.568c-0.125,0.258-0.347,0.471-0.522,0.7
		c-0.485-3.123-0.764-6.184-1.46-9.146c-1.742-7.413-6.924-14.625-16.299-15.604c-5.93-0.621-11.121,0.243-14.802,5.521
		c-1.331,1.908-2.812,3.72-4.314,5.497c-0.35,0.415-1.095,0.756-1.599,0.688c-0.331-0.044-0.735-0.859-0.796-1.368
		c-0.237-1.972-0.508-3.962-0.482-5.94c0.09-6.799,0.317-13.594,0.458-20.391c0.074-3.586-1.139-5.183-4.609-6.263
		c-0.218-0.067-0.412-0.207-0.618-0.312c-0.873,0-1.748,0-2.622,0c-6.15,2.035-12.287,4.109-18.456,6.088
		c-3.116,0.996-6.187,2.011-8.564,4.693c-0.856-0.966-1.678-1.836-2.439-2.758c-3.559-4.312-8.244-6.632-13.62-7.747
		C58.714,0.23,58.509,0.094,58.296,0c-3.207,0-6.413,0-9.62,0c-3.134,0.293-6.261,0.713-9.403,0.856
		C31.139,1.235,23,1.497,14.862,1.797c-2.033,0.075-4.085-0.026-6.096,0.221C5.008,2.478,1.533,3.539,0,7.578
		c0,1.067,0,2.138,0,3.206c1.101,2.274,2.943,3.626,5.301,4.436c1.14,0.393,2.184,1.054,3.29,1.547
		c1.356,0.607,1.922,1.623,1.946,3.104c0.138,8.4,0.434,16.802,0.453,25.202c0.015,6.699-0.3,13.396-0.449,20.097
		c-0.04,1.771-0.882,3.024-2.336,3.942c-0.862,0.544-1.828,0.987-2.536,1.688c-1.065,1.054-1.943,2.292-2.901,3.453
		c0.111,0.117,0.222,0.234,0.333,0.352c14.667,0,29.333,0,44.17,0c-1.153-2.116-2.896-3.335-4.782-4.308
		c-2.432-1.253-3.632-3.251-4.035-5.854c-0.26-1.677-0.536-3.353-0.794-5.03c-0.611-3.979-0.011-4.638,3.948-4.184
		c6.852,0.787,13.665-0.011,20.232-1.61c9.62-2.346,15.979-8.446,17.979-18.501c0.163-0.822,0.419-1.625,0.632-2.438
		c0.131,0.012,0.262,0.022,0.392,0.034c0.067,0.404,0.189,0.81,0.193,1.214c0.106,9.079,0.142,18.161,0.318,27.238
		c0.081,4.247-0.982,7.801-4.664,10.354c-0.893,0.619-1.356,1.858-2.213,3.098c13.412,0,26.301,0,39.603,0
		c-0.714-0.746-1.116-1.383-1.691-1.729c-2.291-1.371-3.116-3.434-3.182-5.99c-0.175-6.756-0.146-13.494,0.949-20.193
		c0.241-1.47,0.905-2.524,2.144-3.271c3.176-1.911,7.123-0.428,8.394,3.188c2.211,6.293,1.921,12.799,1.586,19.308
		c-0.135,2.611-0.995,4.918-2.771,6.877c-0.434,0.479-0.716,1.096-1.172,1.814c11.241,0,22.235,0,33.255,0
		c-0.742-2.284-1.459-4.483-2.175-6.686c1.526,1.812,2.833,3.669,4.054,5.583c0.593,0.931,1.32,1.217,2.41,1.212
		c8.791-0.042,17.583-0.022,26.375-0.022c9.083,0,18.166,0.016,27.25-0.031c0.643-0.002,1.52-0.239,1.887-0.693
		c2.586-3.196,4.785-6.665,5.457-10.793c0.561-3.438,0.786-6.935,1.145-10.406c0.429-4.185-0.133-8.227-1.762-12.119
		c-0.267-0.642-0.404-1.334-0.652-2.178c1.189,0.102,2.146,0.211,3.104,0.258c1.183,0.058,1.623,0.707,1.57,1.812
		c-0.059,1.212-0.207,2.432-0.146,3.638c0.267,5.283,0.558,10.566,0.904,15.845c0.283,4.303,0.371,8.632,1.799,12.789
		c0.475,1.373,1.088,1.929,2.672,1.925c32.689-0.061,65.382-0.044,98.07-0.044c3.187,0,3.191-0.001,2.99-3.239
		c-0.08-1.272-0.416-2.395-1.859-2.766c-2.25-0.58-3.207-2.218-3.381-4.362c-0.25-3.088-0.494-6.182-0.559-9.275
		c-0.104-5.1-0.066-10.199-0.082-15.3c0-0.464,0.047-0.928,0.084-1.613c1.537,0.682,2.865,1.328,4.236,1.865
		c2.479,0.972,4.063,2.724,5.184,5.132c4.367,9.39,8.855,18.722,13.246,28.1c0.535,1.144,1.207,1.496,2.441,1.488
		c8.209-0.053,16.418-0.066,24.627,0.011c1.377,0.013,1.936-0.455,2.381-1.692c3.207-8.945,6.535-17.848,9.715-26.802
		c1.156-3.249,3.213-5.587,6.137-7.277c1.346-0.776,2.694-1.557,3.969-2.438c2.189-1.515,3.305-4.717,2.613-7.234
		C394.633,26.885,392.969,25.656,389.795,25.399z M51.476,36.705c-1.422,3.784-4.342,6.1-8.32,6.86
		c-2.503,0.479-4.782-1.493-4.939-4.045c-0.11-1.789-0.212-3.578-0.318-5.364c0.029-0.003,0.058-0.004,0.088-0.006
		c0-4.308-0.022-8.614,0.012-12.921c0.011-1.256,0.156-2.514,0.291-3.765c0.116-1.083,0.794-1.571,1.859-1.646
		c4.994-0.35,9.769,2.058,11.236,7.522C52.589,27.824,53.133,32.296,51.476,36.705z M189.997,68.598
		c-0.408,0.954-0.948,1.89-1.596,2.698c-0.874,1.089-2.36,1.281-3.488,0.494c-2.214-1.545-4.144-3.394-4.89-6.086
		c-1.395-5.04-2.702-10.104-4.004-15.168c-0.19-0.738-0.157-1.532-0.227-2.302c-0.055-0.018-0.109-0.033-0.163-0.052
		c0.372-1.831,0.547-3.738,1.206-5.458c0.304-0.793,1.481-1.537,2.394-1.761c2.8-0.679,5.382,0.771,6.272,3.604
		c1.651,5.264,3.244,10.555,4.592,15.901C190.759,63.112,191.142,65.922,189.997,68.598z M268.85,54.674
		c-3.451,2.96-6.42,6.227-8.427,10.359c-1.03,2.12-4.498,3.807-6.764,3.287c-0.767-0.174-1.634-1.098-1.938-1.879
		c-1.277-3.284-2.16-6.666-2.209-10.255c-0.061-4.503-0.326-9.002-0.502-13.503c-0.033-0.004-0.07-0.009-0.104-0.013
		c0.121-1.295,0.238-2.592,0.369-3.885c0.106-1.044,0.828-1.562,1.746-1.629c3.549-0.255,7.062-0.953,10.674-0.161
		c1.488,0.324,1.779,1.156,1.959,2.229c0.32,1.907,1.062,3.544,2.353,5.01c2.769,3.145,6.302,3.405,9.281,0.438
		c1.952-1.941,3.674-4.109,5.599-6.08c1.915-1.961,4.094-3.422,6.989-3.715c2.631-0.269,4.427,0.647,5.252,3.115
		c0.955,2.849,1.07,5.783,0.961,8.746c-0.043,1.156-0.616,1.629-1.772,1.559c-2.158-0.132-4.324-0.341-6.479-0.275
		C279.404,48.221,273.761,50.459,268.85,54.674z M294.357,70.626c-0.17,2.244-3.428,3.248-5.291,1.836
		c-2.051-1.557-3.414-3.61-3.317-6.292c0.067-1.913,0.179-3.869,0.64-5.714c0.58-2.314,2.657-3.786,4.37-3.504
		c2.472,0.405,4.101,2.389,4.119,5.015c0.004,0.776,0,1.556,0,2.332c0.075,0.008,0.151,0.017,0.228,0.024
		C294.852,66.424,294.521,68.519,294.357,70.626z"/>
	<path fill="#E8CF64" d="M332.375,104.355c-0.014,0.074-0.029,0.146-0.045,0.223c1.15,0.408,2.301,0.818,3.449,1.229
		c2.818,0,5.637,0,8.455,0c1.508-0.416,3.02-0.831,4.526-1.248c-0.021-0.066-0.04-0.138-0.061-0.203
		C343.164,104.355,337.912,104.355,332.375,104.355z"/>
	<path fill="#E8CF64" d="M325.175,76.995c-33.37,0-66.688,0-100.104,0c0.462,1.185,1.246,1.485,2.324,1.485
		c32-0.015,63.998-0.016,95.998,0.009C324.439,78.49,325.055,78.211,325.175,76.995z"/>
	<path fill="#E8CF64" d="M404.768,1.613c-6.881-0.006-12.43,5.521-12.434,12.39c-0.004,6.854,5.55,12.43,12.4,12.445
		c6.854,0.015,12.406-5.535,12.418-12.412C417.162,7.145,411.654,1.621,404.768,1.613z M404.691,24.826
		c-5.977-0.027-10.854-4.941-10.793-10.873c0.059-5.974,4.943-10.787,10.922-10.765c5.94,0.021,10.844,4.965,10.803,10.892
		C415.582,20.039,410.683,24.853,404.691,24.826z"/>
	<path fill="#E8CF64" d="M156.542,76.988c-0.061,0.186-0.122,0.368-0.183,0.554c0.785,0.311,1.568,0.885,2.354,0.891
		c15.629,0.051,31.258,0.055,46.886-0.006c0.932-0.004,1.861-0.63,2.792-0.967c-0.049-0.158-0.098-0.313-0.147-0.472
		C191.01,76.988,173.776,76.988,156.542,76.988z"/>
	<path fill="#E8CF64" d="M47.045,76.877c-14.327,0.011-28.654,0.007-42.981,0.008c-0.339,0-0.722-0.07-1.004,0.062
		c-0.235,0.112-0.483,0.474-0.483,0.726c0,0.253,0.248,0.64,0.479,0.729c0.34,0.133,0.763,0.064,1.151,0.064
		c14.327,0.003,28.654,0.003,42.981-0.001c0.473,0,0.946-0.041,1.468-0.062C48.908,76.938,48.053,76.878,47.045,76.877z"/>
	<path fill="#E8CF64" d="M321.011,92.677c0.321,0.042,0.56,0.099,0.796,0.099c13.153,0.006,26.31,0.001,39.461,0.015
		c1.012,0.001,1.49-0.456,1.596-1.454c-14.016,0-27.969,0-42.043,0C320.895,91.843,320.95,92.248,321.011,92.677z"/>
	<path fill="#E8CF64" d="M113.308,76.881c-12.466,0.009-24.933,0.005-37.399,0.009c-0.379,0-0.759,0.04-1.199,0.063
		c-0.324,1.565,0.596,1.521,1.53,1.521c12.418-0.008,24.835-0.004,37.253-0.01c0.423,0,0.847-0.056,1.252-0.084
		C115.128,76.922,114.277,76.88,113.308,76.881z"/>
	<path fill="#E8CF64" d="M5.578,84.296c-0.041,0.189-0.081,0.379-0.122,0.569c1.047,0.308,2.092,0.878,3.141,0.884
		c11.46,0.062,22.92,0.064,34.378-0.001c1.105-0.006,2.207-0.585,3.311-0.897c-0.052-0.186-0.104-0.37-0.155-0.555
		C32.613,84.296,19.096,84.296,5.578,84.296z"/>
	<path fill="#E8CF64" d="M4.824,82.005C10.115,81.994,15.406,82,20.698,82c8.69,0,17.38-0.001,26.07,0.001
		c0.837,0,1.743,0.123,1.695-1.259c-15.135,0-30.161,0-45.206,0C3.237,81.972,3.987,82.007,4.824,82.005z"/>
	<path fill="#E8CF64" d="M339.842,87.931c-5.873,0-11.74-0.002-17.611,0c-0.385,0-0.795-0.042-1.152,0.063
		c-0.191,0.058-0.418,0.391-0.418,0.598c0,0.204,0.236,0.539,0.426,0.583c0.418,0.097,0.865,0.055,1.305,0.055
		c10.625,0.002,21.244,0.002,31.869,0.002c3.008,0,6.016-0.011,9.023,0.006c0.84,0.006,1.541-0.127,1.766-1.307
		c-0.625,0-1.183,0-1.747,0C355.48,87.931,347.66,87.931,339.842,87.931z"/>
	<path fill="#E8CF64" d="M151.969,76.941c-0.327-0.146-0.761-0.054-1.149-0.054c-5.192-0.002-10.384-0.002-15.575-0.002
		s-10.383,0-15.575,0.002c-0.34,0-0.719-0.091-1.009,0.031c-0.335,0.142-0.589,0.472-0.878,0.72
		c0.265,0.272,0.487,0.637,0.809,0.794c0.276,0.136,0.666,0.038,1.006,0.038c10.432,0.002,20.863,0.002,31.295,0
		c0.34,0,0.717,0.085,1.008-0.036c0.285-0.12,0.672-0.454,0.668-0.688C152.565,77.464,152.249,77.064,151.969,76.941z"/>
	<path fill="#E8CF64" d="M159.781,80.717c-0.047,0.177-0.094,0.35-0.141,0.524c0.711,0.252,1.42,0.722,2.131,0.724
		c12.726,0.046,25.454,0.053,38.18-0.004c0.907-0.005,1.811-0.549,2.718-0.843c-0.04-0.133-0.082-0.268-0.122-0.401
		C188.292,80.717,174.036,80.717,159.781,80.717z"/>
	<path fill="#E8CF64" d="M323.582,95.323c5.723-0.003,11.449-0.001,17.174-0.001c6.113,0,12.227-0.002,18.34,0.003
		c0.832,0,1.662,0.02,1.986-1.12c-13.239,0-26.34,0-39.541,0C321.916,95.383,322.758,95.325,323.582,95.323z"/>
	<path fill="#E8CF64" d="M75.912,81.278c0.743,0.241,1.482,0.681,2.227,0.688C83.38,82.027,88.623,82,93.866,82
		c6.456,0,12.912,0.003,19.368-0.005c1.231-0.001,1.231-0.021,1.248-1.283c-12.797,0-25.595,0-38.391,0
		C76.031,80.9,75.972,81.089,75.912,81.278z"/>
	<path fill="#E8CF64" d="M80.752,84.271c-0.027,0.154-0.055,0.312-0.082,0.468c1.523,0.349,3.041,0.979,4.567,1
		c8.014,0.103,16.029,0.089,24.042,0.005c1.165-0.012,2.323-0.618,3.484-0.948c-0.052-0.176-0.102-0.351-0.154-0.523
		C101.99,84.271,91.371,84.271,80.752,84.271z"/>
	<path fill="#E8CF64" d="M323.145,96.768c-0.056,0.147-0.108,0.298-0.166,0.449c0.627,0.271,1.248,0.775,1.875,0.778
		c10.879,0.049,21.758,0.049,32.636,0c0.616-0.004,1.229-0.518,1.848-0.792c-0.06-0.146-0.116-0.29-0.174-0.437
		C347.156,96.768,335.15,96.768,323.145,96.768z"/>
	<path fill="#E8CF64" d="M118.792,80.724c0.189,1.137,0.866,1.29,1.727,1.283c3.588-0.021,7.177-0.008,10.766-0.008
		c6.498,0,12.996,0,19.495-0.001c0.814-0.001,1.727,0.108,1.564-1.274C141.167,80.724,130.032,80.724,118.792,80.724z"/>
	<path fill="#E8CF64" d="M228.85,80.733c-0.043,0.141-0.084,0.279-0.125,0.418c0.862,0.282,1.726,0.804,2.588,0.811
		c9.754,0.059,19.506,0.056,29.258,0c0.662-0.004,1.322-0.546,1.981-0.838c-0.059-0.13-0.116-0.261-0.176-0.391
		C251.201,80.733,240.025,80.733,228.85,80.733z"/>
	<path fill="#E8CF64" d="M166.473,84.224c-0.026,0.146-0.052,0.296-0.076,0.441c1.951,0.374,3.897,1.022,5.856,1.069
		c6.011,0.142,12.028,0.134,18.038,0.002c1.802-0.038,3.591-0.674,5.383-1.034c-0.031-0.161-0.061-0.319-0.093-0.479
		C185.879,84.224,176.176,84.224,166.473,84.224z"/>
	<path fill="#E8CF64" d="M345.714,77.029c-0.062,0.156-0.127,0.312-0.19,0.469c0.584,0.325,1.168,0.925,1.754,0.929
		c7.324,0.064,14.648,0.066,21.974,0.002c0.634-0.006,1.267-0.597,1.899-0.915c-0.086-0.16-0.172-0.322-0.258-0.482
		C362.501,77.029,354.107,77.029,345.714,77.029z"/>
	<path fill="#E8CF64" d="M325.468,99.448c-0.036,0.146-0.073,0.295-0.112,0.441c0.666,0.254,1.328,0.728,1.996,0.73
		c9.17,0.049,18.347,0.05,27.519-0.004c0.692-0.004,1.383-0.514,2.075-0.788c-0.047-0.127-0.092-0.257-0.141-0.382
		C346.361,99.448,335.915,99.448,325.468,99.448z"/>
	<path fill="#E8CF64" d="M265.977,80.722c0.215,1.231,1.045,1.285,1.975,1.284c8.25-0.013,16.502,0.013,24.75-0.039
		c0.822-0.005,1.646-0.44,2.469-0.676c-0.041-0.188-0.082-0.381-0.124-0.569C285.368,80.722,275.689,80.722,265.977,80.722z"/>
	<path fill="#E8CF64" d="M235.587,84.223c1.957,1.053,4.015,1.583,6.215,1.571c4.613-0.021,9.229,0.055,13.841-0.05
		c1.105-0.023,2.196-0.587,3.295-0.902c-0.051-0.208-0.101-0.413-0.15-0.619C251.055,84.223,243.318,84.223,235.587,84.223z"/>
	<path fill="#E8CF64" d="M269.193,84.885c1.211,0.302,2.418,0.84,3.637,0.863c5.047,0.097,10.098,0.007,15.145,0.062
		c1.256,0.015,2.058-0.548,2.986-1.565c-7.373,0-14.504,0-21.633,0C269.283,84.458,269.238,84.672,269.193,84.885z"/>
	<path fill="#E8CF64" d="M322.677,84.12c-1.069-0.01-1.688,0.238-1.604,1.553c6.649,0,13.243,0,19.823,0
		c0.045-1.274-0.584-1.556-1.646-1.549C333.727,84.161,328.202,84.164,322.677,84.12z"/>
	<path fill="#E8CF64" d="M366.469,84.15c-5.822-0.006-11.645,0.013-17.465-0.023c-1.143-0.005-1.307,0.686-1.461,1.517
		c0.156,0.053,0.246,0.111,0.338,0.111c5.967,0.013,11.936,0.052,17.9-0.021c0.545-0.006,1.084-0.719,1.625-1.104
		c-0.078-0.123-0.158-0.248-0.24-0.372C366.934,84.219,366.701,84.151,366.469,84.15z"/>
	<path fill="#E8CF64" d="M123.118,84.646c8.581,1.085,17.165,1.196,25.752,0.061c0.013-0.156,0.025-0.312,0.038-0.469
		c-8.597,0-17.194,0-25.79,0C123.118,84.374,123.118,84.51,123.118,84.646z"/>
	<path fill="#E8CF64" d="M322.035,80.737c-7.529,0-15.059,0-22.59,0c-0.072,0.17-0.147,0.34-0.219,0.51
		c0.627,0.251,1.252,0.715,1.883,0.719c6.158,0.057,12.317,0.066,18.475-0.003c0.859-0.01,1.713-0.518,2.57-0.793
		C322.113,81.025,322.076,80.881,322.035,80.737z"/>
	<path fill="#E8CF64" d="M347.757,80.79c-0.059,0.172-0.121,0.344-0.18,0.516c0.506,0.23,1.008,0.659,1.514,0.662
		c6.2,0.047,12.399,0.052,18.597-0.006c0.545-0.005,1.082-0.509,1.623-0.781c-0.067-0.13-0.136-0.26-0.201-0.391
		C361.988,80.79,354.874,80.79,347.757,80.79z"/>
	<path fill="#E8CF64" d="M328.46,102.076c-0.03,0.124-0.062,0.247-0.09,0.372c0.637,0.179,1.274,0.51,1.916,0.513
		c7.075,0.037,14.153,0.04,21.229-0.002c0.69-0.005,1.377-0.36,2.063-0.553c-0.032-0.11-0.062-0.221-0.095-0.33
		C345.146,102.076,336.805,102.076,328.46,102.076z"/>
	<path fill="#E8CF64" d="M322.264,81.445c0.067,0.152,0.135,0.306,0.202,0.458c5.738,0,11.478,0,17.214,0
		c0.075-0.16,0.15-0.318,0.223-0.479c-0.506-0.26-1.014-0.738-1.525-0.745c-4.889-0.057-9.773-0.056-14.664,0.002
		C323.227,80.685,322.745,81.177,322.264,81.445z"/>
	<path fill="#E8CF64" d="M35.609,88.035c-6.083,0-12.167,0-18.25,0C23.443,89.127,29.528,89.495,35.609,88.035z"/>
	<path fill="#E8CF64" d="M314.734,84.21c-3.666,0-7.328,0-10.99,0C307.439,86.247,311.096,85.801,314.734,84.21z"/>
	<path fill="#E8CF64" d="M327.241,78.399c3.075,0,6.149,0,9.223,0C333.369,76.809,330.294,76.677,327.241,78.399z"/>
	<path fill="#E8CF64" d="M403.939,8.319c-2.268-0.481-3.424,0.458-3.096,3.259c0.207,1.783,0.008,3.611,0.055,5.419
		c0.021,0.837-0.312,2.011,1.021,2.126c1.396,0.122,1.26-1.033,1.223-1.902c-0.054-1.229,0.276-1.902,1.68-1.849
		c2.688,0.103,4.397-0.966,4.176-3.958C408.773,8.382,406.537,8.344,403.939,8.319z M404.58,13.455
		c-1.297,0.052-1.418-0.715-1.416-1.715c0.003-1.111,0.441-1.683,1.604-1.573c1.09,0.104,2.01,0.384,1.969,1.752
		C406.611,13.265,405.673,13.411,404.58,13.455z"/>
</g>
</svg>
